<svg width="145" height="145" viewBox="0 0 145 145" fill="none" xmlns="http://www.w3.org/2000/svg">
<path d="M132.922 127.73H68.582L121.963 74.3494L140.558 55.6838C141.879 54.3814 142.928 52.8293 143.644 51.1179C144.36 49.4065 144.729 47.5698 144.729 45.7147C144.729 43.8595 144.36 42.0228 143.644 40.3114C142.928 38.6 141.879 37.048 140.558 35.7455L108.953 4.14123C107.646 2.82865 106.093 1.78715 104.382 1.07648C102.671 0.365824 100.837 -3.8147e-06 98.9843 -3.8147e-06C97.1318 -3.8147e-06 95.2976 0.365824 93.5868 1.07648C91.876 1.78715 90.3224 2.82865 89.0152 4.14123L4.17145 88.985C2.85026 90.2874 1.8011 91.8394 1.08498 93.5508C0.368851 95.2622 3.59339e-05 97.0989 -3.05176e-05 98.9541V130.558C0.0185534 134.303 1.51433 137.889 4.1622 140.537C6.81006 143.185 10.396 144.68 14.1406 144.699H132.922C135.172 144.699 137.33 143.805 138.921 142.214C140.512 140.623 141.406 138.465 141.406 136.215C141.406 133.964 140.512 131.806 138.921 130.215C137.33 128.624 135.172 127.73 132.922 127.73ZM23.332 93.7928L76.3593 40.7654L84.1367 48.5428L31.1093 101.57L23.332 93.7928ZM96.1562 60.5623L103.934 68.3397L50.9062 121.367L43.1289 113.59L96.1562 60.5623ZM98.9843 18.1404L126.559 45.7147L115.953 56.3201L88.3789 28.7459L98.9843 18.1404ZM16.9687 111.469L25.0996 119.599L33.2304 127.73H16.9687V111.469Z" fill="#111111"/>
</svg>
