<svg width="115" height="53" viewBox="0 0 115 53" fill="none" xmlns="http://www.w3.org/2000/svg">
<path d="M15.6947 15.8892H8.58185L14.4832 9.24878L16.5389 6.92685C16.6849 6.76483 16.8009 6.57176 16.8801 6.35887C16.9592 6.14598 17 5.9175 17 5.68673C17 5.45595 16.9592 5.22748 16.8801 5.01458C16.8009 4.80169 16.6849 4.60862 16.5389 4.4466L13.045 0.515153C12.9005 0.351873 12.7287 0.222314 12.5396 0.133911C12.3505 0.0455075 12.1477 0 11.9429 0C11.7381 0 11.5353 0.0455075 11.3462 0.133911C11.157 0.222314 10.9853 0.351873 10.8408 0.515153L1.46116 11.0694C1.3151 11.2314 1.19912 11.4245 1.11995 11.6374C1.04078 11.8503 1.00001 12.0787 1 12.3095V16.241C1.00205 16.7068 1.16742 17.1529 1.46014 17.4822C1.75287 17.8116 2.1493 17.9977 2.56327 18H15.6947C15.9435 18 16.1821 17.8888 16.358 17.6909C16.5339 17.4929 16.6327 17.2245 16.6327 16.9446C16.6327 16.6647 16.5339 16.3962 16.358 16.1983C16.1821 16.0003 15.9435 15.8892 15.6947 15.8892ZM3.57939 11.6675L9.44165 5.07106L10.3014 6.03854L4.43919 12.6349L3.57939 11.6675ZM11.6302 7.53372L12.49 8.50119L6.62777 15.0976L5.76797 14.1301L11.6302 7.53372ZM11.9429 2.2566L14.9913 5.68673L13.8188 7.00601L10.7704 3.57588L11.9429 2.2566ZM2.87592 13.8663L3.7748 14.8777L4.67368 15.8892H2.87592V13.8663Z" fill="#1D1D1D"/>
<path d="M12.24 38.92C12.1867 38.92 12.0933 38.9333 11.96 38.96C11.8267 38.9867 11.6933 39 11.56 39C11.4267 39.0267 11.3067 39.04 11.2 39.04C11.12 39.0667 11.0933 39.08 11.12 39.08H9.16C8.73333 39.0267 8.37333 38.9867 8.08 38.96C7.81333 38.96 7.57333 38.9733 7.36 39C7.30667 39 7.25333 38.9733 7.2 38.92C7.14667 38.8933 7.10667 38.8667 7.08 38.84C7.05333 38.6 7.04 38.24 7.04 37.76C7.06667 37.28 7.08 36.9067 7.08 36.64V36.08C7.13333 35.6267 7.14667 35.2267 7.12 34.88C7.09333 34.5067 7.08 34.0933 7.08 33.64V32.76C7.21333 32.1733 7.24 31.56 7.16 30.92C7.10667 30.28 7.08 29.6933 7.08 29.16V18.96C7.08 18.6933 7.01333 18.56 6.88 18.56C6.50667 18.5333 6.21333 18.52 6 18.52C5.78667 18.52 5.49333 18.5333 5.12 18.56C4.96 18.56 4.68 18.52 4.28 18.44C3.90667 18.36 3.65333 18.3333 3.52 18.36C3.38667 18.4133 3.10667 18.4133 2.68 18.36C2.28 18.3067 2.01333 18.28 1.88 18.28C1.74667 18.28 1.62667 18.28 1.52 18.28C1.41333 18.2533 1.30667 18.2 1.2 18.12V15.64C1.30667 15.5867 1.46667 15.56 1.68 15.56C1.89333 15.56 2.10667 15.56 2.32 15.56C2.58667 15.56 2.82667 15.56 3.04 15.56C3.25333 15.56 3.45333 15.5467 3.64 15.52C3.69333 15.52 3.88 15.5333 4.2 15.56C4.52 15.5867 4.78667 15.6133 5 15.64C5.16 15.5867 5.32 15.56 5.48 15.56C5.88 15.5333 6.25333 15.5333 6.6 15.56C6.84 15.5867 7.01333 15.5867 7.12 15.56C7.22667 15.5333 7.38667 15.52 7.6 15.52H8.24L9.32 15.6C9.58667 15.6 9.85333 15.6 10.12 15.6C10.3867 15.5733 10.6533 15.5733 10.92 15.6C11.5333 15.6533 12.12 15.68 12.68 15.68C13.2667 15.6533 13.7467 15.6133 14.12 15.56C14.3067 15.56 14.64 15.5867 15.12 15.64C15.6 15.6933 16.0667 15.7333 16.52 15.76C16.8133 15.7867 17.0533 15.7867 17.24 15.76C17.4267 15.7333 17.5867 15.7333 17.72 15.76V17.6C17.72 17.7067 17.7333 17.7733 17.76 17.8C17.7867 17.8267 17.7733 17.9467 17.72 18.16C17.6933 18.2667 17.5867 18.3333 17.4 18.36C17.2133 18.36 17.0667 18.36 16.96 18.36C16.2667 18.4667 15.6267 18.5067 15.04 18.48C14.48 18.4533 13.9333 18.44 13.4 18.44C13.1867 18.44 13.0133 18.44 12.88 18.44C12.7733 18.44 12.64 18.4533 12.48 18.48V19.4C12.48 19.6133 12.4667 19.9333 12.44 20.36C12.44 20.7867 12.44 21.12 12.44 21.36C12.44 21.4667 12.44 21.5467 12.44 21.6C12.44 21.6533 12.4267 21.7333 12.4 21.84C12.4 21.92 12.3867 22.0533 12.36 22.24C12.3333 22.4 12.28 22.64 12.2 22.96C12.2 23.4133 12.2 23.8 12.2 24.12C12.2 24.44 12.2 24.7333 12.2 25C12.2267 25.2667 12.24 25.5333 12.24 25.8C12.24 26.04 12.24 26.3333 12.24 26.68V27.08C12.1333 27.5333 12.1067 27.9867 12.16 28.44C12.2133 28.8933 12.24 29.3467 12.24 29.8V38.92ZM23.7853 23.48C23.972 23.4267 24.1986 23.3467 24.4653 23.24C24.732 23.1333 24.9986 23.08 25.2653 23.08C25.612 23.08 25.932 23.08 26.2253 23.08C26.5186 23.0533 26.8386 23.04 27.1853 23.04C27.452 23.04 27.7053 23.0533 27.9453 23.08C28.212 23.08 28.452 23.12 28.6653 23.2C28.7186 23.2 28.7853 23.2133 28.8653 23.24C28.9453 23.2667 29.052 23.3467 29.1853 23.48C29.452 23.56 29.7053 23.6933 29.9453 23.88C30.1853 24.0667 30.3986 24.2933 30.5853 24.56C30.7986 24.8267 30.9853 25.1067 31.1453 25.4C31.332 25.6667 31.492 25.9333 31.6253 26.2C31.7586 26.4133 31.8386 26.6933 31.8653 27.04C31.9186 27.3867 31.9853 27.6667 32.0653 27.88C32.0653 28.2533 32.0786 28.6133 32.1053 28.96C32.1586 29.3067 32.1853 29.6667 32.1853 30.04C32.1853 30.6533 32.172 31.24 32.1453 31.8C32.1186 32.36 32.1053 32.9467 32.1053 33.56L32.0253 34.88C32.0253 34.9867 31.972 35.1733 31.8653 35.44C31.7586 35.7067 31.692 35.9067 31.6653 36.04C31.5853 36.3067 31.4786 36.6267 31.3453 37C31.212 37.3467 31.1186 37.5467 31.0653 37.6C30.932 37.7333 30.8386 37.8533 30.7853 37.96C30.732 38.0667 30.6786 38.1733 30.6253 38.28C30.5986 38.3867 30.5453 38.48 30.4653 38.56C30.412 38.64 30.3053 38.72 30.1453 38.8C30.012 38.8533 29.852 38.9333 29.6653 39.04C29.4786 39.1733 29.3053 39.2933 29.1453 39.4C29.012 39.4533 28.9453 39.4933 28.9453 39.52C28.9453 39.5733 28.852 39.6267 28.6653 39.68L27.9453 39.84C27.6253 39.8933 27.3586 39.9067 27.1453 39.88C26.9586 39.8533 26.7453 39.84 26.5053 39.84C25.7586 39.84 25.012 39.6933 24.2653 39.4C24.0253 39.4 23.7853 39.3467 23.5453 39.24C23.332 39.1333 23.172 39.0133 23.0653 38.88C22.932 38.7733 22.7986 38.6533 22.6653 38.52C22.532 38.4133 22.3986 38.2933 22.2653 38.16C22.052 37.92 21.8786 37.68 21.7453 37.44C21.612 37.2 21.4786 36.9467 21.3453 36.68C21.212 36.3867 21.0653 36.0933 20.9053 35.8C20.7453 35.48 20.6386 35.1333 20.5853 34.76C20.532 34.1467 20.4786 33.5867 20.4253 33.08C20.3986 32.5733 20.3853 32.0667 20.3853 31.56V29.92C20.3586 29.8667 20.3453 29.76 20.3453 29.6C20.3453 29.44 20.3586 29.3333 20.3853 29.28C20.3853 29.1467 20.3853 29.0133 20.3853 28.88C20.412 28.72 20.4386 28.5733 20.4653 28.44C20.492 28.2267 20.5053 28.0133 20.5053 27.8C20.5053 27.5867 20.572 27.3733 20.7053 27.16C20.6786 27.2133 20.692 27.1733 20.7453 27.04C20.8253 26.88 20.9053 26.72 20.9853 26.56C21.0653 26.3733 21.132 26.2133 21.1853 26.08C21.2386 25.9467 21.2653 25.8933 21.2653 25.92L21.5453 25.4C21.6253 25.32 21.7053 25.2267 21.7853 25.12C21.8653 25.0133 21.972 24.8933 22.1053 24.76C22.2653 24.6267 22.4653 24.4533 22.7053 24.24C22.972 24.0267 23.332 23.7733 23.7853 23.48ZM26.7053 30.12C26.5986 30.12 26.492 30.1733 26.3853 30.28C26.3053 30.3867 26.252 30.48 26.2253 30.56C26.0386 30.96 25.9453 31.2933 25.9453 31.56C25.9453 32.28 26.1986 32.76 26.7053 33C26.8386 33 26.9453 32.96 27.0253 32.88C27.132 32.7733 27.1853 32.6667 27.1853 32.56C27.1853 32.2933 27.212 31.9867 27.2653 31.64C27.3453 31.2933 27.3186 30.9333 27.1853 30.56C27.052 30.4267 26.972 30.32 26.9453 30.24C26.9186 30.16 26.8386 30.12 26.7053 30.12ZM46.3938 23.96C46.4204 23.32 46.4738 22.5733 46.5538 21.72C46.6338 20.84 46.7138 20.08 46.7938 19.44C46.7404 19.04 46.7404 18.64 46.7938 18.24C46.8471 17.8133 46.8604 17.4 46.8338 17C46.8338 16.84 46.8338 16.68 46.8338 16.52C46.8604 16.3333 46.8738 16.16 46.8738 16C47.0071 15.36 47.0738 14.7067 47.0738 14.04C47.0738 13.3733 47.1404 12.64 47.2738 11.84V11.36C47.8071 11.4933 48.3004 11.6133 48.7538 11.72C49.2338 11.8 49.7271 11.84 50.2338 11.84C50.1004 12.24 50.0204 12.64 49.9938 13.04C49.9671 13.44 49.9538 13.8267 49.9538 14.2C49.9538 14.9733 49.9138 15.7467 49.8338 16.52C49.7804 17.2667 49.7538 18.0267 49.7538 18.8C49.7538 18.96 49.7404 19.1333 49.7138 19.32C49.6871 19.48 49.6738 19.64 49.6738 19.8C49.7004 20.0133 49.7004 20.28 49.6738 20.6C49.6738 20.92 49.6738 21.2533 49.6738 21.6C49.6738 21.9467 49.6738 22.28 49.6738 22.6C49.7004 22.92 49.7404 23.1867 49.7938 23.4C49.7138 24.04 49.6871 24.6933 49.7138 25.36C49.7671 26 49.7804 26.64 49.7538 27.28C49.7004 27.7333 49.6871 28.1733 49.7138 28.6C49.7404 29 49.7538 29.4267 49.7538 29.88C49.7538 30.3333 49.7538 30.7867 49.7538 31.24C49.7804 31.6933 49.7938 32.1467 49.7938 32.6C49.7938 33.0533 49.7538 33.6 49.6738 34.24C49.5938 34.8533 49.5671 35.3867 49.5938 35.84C49.5938 36.48 49.5671 37.04 49.5138 37.52C49.4871 38 49.4738 38.5067 49.4738 39.04C49.4738 39.28 49.4071 39.4267 49.2738 39.48C49.1404 39.56 48.9271 39.6 48.6338 39.6C48.2604 39.6533 47.9271 39.6667 47.6338 39.64C47.3404 39.6133 47.0071 39.6 46.6338 39.6C46.3671 39.6 46.2071 39.5467 46.1538 39.44C46.1271 39.3333 46.1138 39.2267 46.1138 39.12V38.4C46.0871 38.3733 46.0604 38.3333 46.0338 38.28C46.0071 38.2267 45.9804 38.1867 45.9538 38.16C45.9271 38.16 45.9004 38.1467 45.8738 38.12C45.7404 38.2533 45.5538 38.3467 45.3138 38.4C45.0738 38.4533 44.8338 38.5467 44.5938 38.68C44.1938 38.9467 43.7404 39.1333 43.2338 39.24C42.7538 39.3467 42.2471 39.4 41.7138 39.4C41.3404 39.4 41.0071 39.3867 40.7138 39.36C40.4471 39.36 40.1938 39.3067 39.9538 39.2C39.8204 39.2 39.7271 39.1467 39.6738 39.04C39.6471 38.96 39.5671 38.92 39.4338 38.92C38.9004 38.6533 38.4338 38.3733 38.0338 38.08C37.6338 37.8133 37.2471 37.4933 36.8738 37.12C36.4738 36.72 36.1671 36.32 35.9538 35.92C35.7671 35.52 35.5404 35.0533 35.2738 34.52C35.1671 34.1467 35.0871 33.7733 35.0338 33.4C35.0071 33 34.9271 32.6133 34.7938 32.24C34.7938 31.7067 34.8071 31.2 34.8338 30.72C34.8871 30.2133 35.0338 29.7733 35.2738 29.4C35.4071 28.7333 35.6604 28.1467 36.0338 27.64C36.4071 27.1333 36.8471 26.6933 37.3538 26.32C37.6204 26.0533 37.9271 25.84 38.2738 25.68C38.6471 25.52 39.0338 25.3733 39.4338 25.24C39.7004 25.24 39.9938 25.24 40.3138 25.24C40.6604 25.2133 40.9671 25.1333 41.2338 25C41.6071 25 41.9404 25.0133 42.2338 25.04C42.5538 25.04 42.9138 25.1067 43.3138 25.24C43.4204 25.3733 43.5804 25.4667 43.7938 25.52C44.0071 25.5733 44.1804 25.6667 44.3138 25.8C44.5538 25.9333 44.8071 26.0667 45.0738 26.2C45.3404 26.3067 45.6071 26.4133 45.8738 26.52C46.0071 26.4133 46.0738 26.2533 46.0738 26.04C46.0738 25.8 46.1404 25.5333 46.2738 25.24C46.2738 25.1067 46.2871 24.9333 46.3138 24.72C46.3671 24.5067 46.3938 24.2533 46.3938 23.96ZM41.7138 28.88C41.2071 29.1467 40.8204 29.56 40.5538 30.12C40.3138 30.6533 40.1938 31.1733 40.1938 31.68C40.1938 31.9733 40.2338 32.2 40.3138 32.36C40.3938 32.52 40.4338 32.72 40.4338 32.96C40.4338 33.36 40.5538 33.6933 40.7938 33.96C41.0338 34.2267 41.3404 34.5067 41.7138 34.8C42.0338 35.0667 42.4738 35.0667 43.0338 34.8C43.2738 34.5067 43.5404 34.2267 43.8338 33.96C44.1538 33.6667 44.3138 33.2667 44.3138 32.76C44.4471 32.2267 44.4738 31.76 44.3938 31.36C44.3138 30.96 44.2071 30.56 44.0738 30.16C43.9404 29.7867 43.7004 29.48 43.3538 29.24C43.0071 29 42.6338 28.88 42.2338 28.88H41.7138ZM56.2853 23.48C56.472 23.4267 56.6986 23.3467 56.9653 23.24C57.232 23.1333 57.4986 23.08 57.7653 23.08C58.112 23.08 58.432 23.08 58.7253 23.08C59.0186 23.0533 59.3386 23.04 59.6853 23.04C59.952 23.04 60.2053 23.0533 60.4453 23.08C60.712 23.08 60.952 23.12 61.1653 23.2C61.2186 23.2 61.2853 23.2133 61.3653 23.24C61.4453 23.2667 61.552 23.3467 61.6853 23.48C61.952 23.56 62.2053 23.6933 62.4453 23.88C62.6853 24.0667 62.8986 24.2933 63.0853 24.56C63.2986 24.8267 63.4853 25.1067 63.6453 25.4C63.832 25.6667 63.992 25.9333 64.1253 26.2C64.2586 26.4133 64.3386 26.6933 64.3653 27.04C64.4186 27.3867 64.4853 27.6667 64.5653 27.88C64.5653 28.2533 64.5786 28.6133 64.6053 28.96C64.6586 29.3067 64.6853 29.6667 64.6853 30.04C64.6853 30.6533 64.672 31.24 64.6453 31.8C64.6186 32.36 64.6053 32.9467 64.6053 33.56L64.5253 34.88C64.5253 34.9867 64.472 35.1733 64.3653 35.44C64.2586 35.7067 64.192 35.9067 64.1653 36.04C64.0853 36.3067 63.9786 36.6267 63.8453 37C63.712 37.3467 63.6186 37.5467 63.5653 37.6C63.432 37.7333 63.3386 37.8533 63.2853 37.96C63.232 38.0667 63.1786 38.1733 63.1253 38.28C63.0986 38.3867 63.0453 38.48 62.9653 38.56C62.912 38.64 62.8053 38.72 62.6453 38.8C62.512 38.8533 62.352 38.9333 62.1653 39.04C61.9786 39.1733 61.8053 39.2933 61.6453 39.4C61.512 39.4533 61.4453 39.4933 61.4453 39.52C61.4453 39.5733 61.352 39.6267 61.1653 39.68L60.4453 39.84C60.1253 39.8933 59.8586 39.9067 59.6453 39.88C59.4586 39.8533 59.2453 39.84 59.0053 39.84C58.2586 39.84 57.512 39.6933 56.7653 39.4C56.5253 39.4 56.2853 39.3467 56.0453 39.24C55.832 39.1333 55.672 39.0133 55.5653 38.88C55.432 38.7733 55.2986 38.6533 55.1653 38.52C55.032 38.4133 54.8986 38.2933 54.7653 38.16C54.552 37.92 54.3786 37.68 54.2453 37.44C54.112 37.2 53.9786 36.9467 53.8453 36.68C53.712 36.3867 53.5653 36.0933 53.4053 35.8C53.2453 35.48 53.1386 35.1333 53.0853 34.76C53.032 34.1467 52.9786 33.5867 52.9253 33.08C52.8986 32.5733 52.8853 32.0667 52.8853 31.56V29.92C52.8586 29.8667 52.8453 29.76 52.8453 29.6C52.8453 29.44 52.8586 29.3333 52.8853 29.28C52.8853 29.1467 52.8853 29.0133 52.8853 28.88C52.912 28.72 52.9386 28.5733 52.9653 28.44C52.992 28.2267 53.0053 28.0133 53.0053 27.8C53.0053 27.5867 53.072 27.3733 53.2053 27.16C53.1786 27.2133 53.192 27.1733 53.2453 27.04C53.3253 26.88 53.4053 26.72 53.4853 26.56C53.5653 26.3733 53.632 26.2133 53.6853 26.08C53.7386 25.9467 53.7653 25.8933 53.7653 25.92L54.0453 25.4C54.1253 25.32 54.2053 25.2267 54.2853 25.12C54.3653 25.0133 54.472 24.8933 54.6053 24.76C54.7653 24.6267 54.9653 24.4533 55.2053 24.24C55.472 24.0267 55.832 23.7733 56.2853 23.48ZM59.2053 30.12C59.0986 30.12 58.992 30.1733 58.8853 30.28C58.8053 30.3867 58.752 30.48 58.7253 30.56C58.5386 30.96 58.4453 31.2933 58.4453 31.56C58.4453 32.28 58.6986 32.76 59.2053 33C59.3386 33 59.4453 32.96 59.5253 32.88C59.632 32.7733 59.6853 32.6667 59.6853 32.56C59.6853 32.2933 59.712 31.9867 59.7653 31.64C59.8453 31.2933 59.8186 30.9333 59.6853 30.56C59.552 30.4267 59.472 30.32 59.4453 30.24C59.4186 30.16 59.3386 30.12 59.2053 30.12ZM71.5738 34.52C71.6271 35.0533 71.6404 35.5333 71.6138 35.96C71.5871 36.3867 71.5471 36.7867 71.4938 37.16C71.4938 37.32 71.4538 37.44 71.3737 37.52C71.1071 37.5733 70.8004 37.6267 70.4538 37.68C70.1071 37.7067 69.7871 37.7067 69.4938 37.68C69.2538 37.6533 69.0138 37.6667 68.7738 37.72C68.5338 37.7467 68.3604 37.76 68.2538 37.76C68.2538 37.6 68.2404 37.4533 68.2138 37.32C68.1871 37.1867 68.1871 37 68.2138 36.76C68.2404 36.5467 68.2404 36.32 68.2138 36.08C68.2138 35.84 68.2138 35.6133 68.2138 35.4V33.44C68.1871 32.8267 68.1738 32.2 68.1738 31.56C68.1738 30.92 68.1604 30.4933 68.1338 30.28C68.1071 30.04 68.1071 29.8 68.1338 29.56C68.1871 29.32 68.2138 29.08 68.2138 28.84C68.1871 28.4667 68.1738 28.0933 68.1738 27.72C68.2004 27.32 68.2138 26.9333 68.2138 26.56C68.2138 26.24 68.2004 25.8267 68.1738 25.32C68.1471 24.7867 68.1604 24.36 68.2138 24.04C68.4271 23.9867 68.6938 23.96 69.0138 23.96C69.3338 23.96 69.6804 23.9467 70.0538 23.92C70.3471 23.8933 70.6404 23.88 70.9338 23.88C71.2271 23.88 71.4404 23.88 71.5738 23.88C71.6271 23.88 71.6404 23.96 71.6138 24.12C71.6138 24.2533 71.6138 24.3467 71.6138 24.4C71.5871 25.0667 71.5871 25.6533 71.6138 26.16C71.6404 26.64 71.6271 27.1467 71.5738 27.68C71.6004 28.2133 71.6004 28.68 71.5738 29.08C71.5738 29.4533 71.5471 29.9067 71.4938 30.44C71.4938 30.52 71.4938 30.7333 71.4938 31.08C71.4938 31.4267 71.5071 31.8267 71.5338 32.28C71.5604 32.7067 71.5738 33.1333 71.5738 33.56C71.5738 33.96 71.5738 34.28 71.5738 34.52ZM68.1738 21.32C68.1471 21.1867 68.1338 20.9867 68.1338 20.72C68.1604 20.4533 68.1738 20.1733 68.1738 19.88C68.1738 19.7467 68.1604 19.6267 68.1338 19.52C68.1338 19.4133 68.1338 19.3067 68.1338 19.2C68.1338 19.1467 68.1338 19.1067 68.1338 19.08C68.1604 19.0533 68.1738 19.0133 68.1738 18.96H71.0538C71.1871 18.96 71.2671 18.9733 71.2938 19C71.3204 19 71.3338 19.0667 71.3338 19.2V21.8C71.1738 21.8267 70.9204 21.84 70.5738 21.84C70.2538 21.84 69.9204 21.84 69.5738 21.84C69.2271 21.84 68.9071 21.84 68.6138 21.84C68.3471 21.8133 68.2138 21.7733 68.2138 21.72C68.1871 21.64 68.1738 21.5067 68.1738 21.32ZM75.7519 24.36C75.7519 24.28 75.7385 24.2 75.7119 24.12C75.6852 24.04 75.6852 23.96 75.7119 23.88C75.7385 23.88 75.7785 23.88 75.8319 23.88C75.9119 23.8533 75.9785 23.84 76.0319 23.84H76.2719C76.4052 23.8133 76.5385 23.8133 76.6719 23.84C76.8052 23.84 76.9385 23.8267 77.0719 23.8H78.2719C78.3252 23.8 78.3785 23.8267 78.4319 23.88C78.4852 23.9333 78.5252 23.9733 78.5519 24L78.6319 24.36C78.6319 24.44 78.6452 24.5333 78.6719 24.64C78.7252 24.8533 78.7519 25.08 78.7519 25.32C78.7785 25.4 78.7919 25.48 78.7919 25.56C78.7919 25.72 78.8052 25.8 78.8319 25.8C78.9385 25.6933 79.0185 25.5867 79.0719 25.48C79.1252 25.3467 79.1919 25.2533 79.2719 25.2C79.3519 25.12 79.4052 25.0667 79.4319 25.04C79.4852 25.0133 79.5252 24.9867 79.5519 24.96C79.6052 24.9333 79.6719 24.9067 79.7519 24.88C79.8319 24.8267 79.9519 24.7467 80.1119 24.64C80.3519 24.5067 80.5652 24.4 80.7519 24.32C80.9652 24.24 81.2852 24.0933 81.7119 23.88C81.7919 23.8533 81.9252 23.8133 82.1119 23.76C82.3252 23.7067 82.5519 23.6667 82.7919 23.64C83.0319 23.5867 83.2719 23.56 83.5119 23.56C83.7785 23.5333 84.0052 23.52 84.1919 23.52C84.4852 23.5467 84.7252 23.5867 84.9119 23.64C85.0985 23.6667 85.3519 23.7067 85.6719 23.76C85.8052 23.7867 86.0185 23.8133 86.3119 23.84C86.6319 23.8667 86.8452 23.9067 86.9519 23.96C87.6185 24.3333 88.1519 24.6533 88.5519 24.92C88.9519 25.1867 89.2985 25.5467 89.5919 26C89.6452 26.0533 89.7252 26.12 89.8319 26.2C89.9385 26.2533 90.0585 26.3467 90.1919 26.48C90.3252 26.6133 90.4452 26.8 90.5519 27.04C90.6852 27.2533 90.7519 27.3867 90.7519 27.44C90.8585 27.8933 90.9785 28.2667 91.1119 28.56C91.2452 28.8267 91.3252 29.1867 91.3519 29.64C91.3785 29.8533 91.4452 30.0933 91.5519 30.36C91.6585 30.6 91.7119 30.8533 91.7119 31.12C91.7119 31.3867 91.7252 31.6933 91.7519 32.04C91.7785 32.36 91.7652 32.8267 91.7119 33.44C91.7119 33.6267 91.7119 33.8 91.7119 33.96C91.7385 34.12 91.7519 34.28 91.7519 34.44V36.28C91.7519 36.4667 91.7519 36.64 91.7519 36.8C91.7519 36.96 91.7385 37.12 91.7119 37.28C91.7119 37.4933 91.7119 37.68 91.7119 37.84C91.7385 38 91.7519 38.1867 91.7519 38.4C91.7519 38.4533 91.7519 38.5067 91.7519 38.56C91.7519 38.64 91.7252 38.6933 91.6719 38.72C91.6185 38.7467 91.5385 38.76 91.4319 38.76C91.3519 38.76 91.2852 38.76 91.2319 38.76C90.9919 38.76 90.7652 38.76 90.5519 38.76C90.3385 38.7867 90.1119 38.7867 89.8719 38.76L88.6719 38.64C88.5652 38.6133 88.4185 38.6133 88.2319 38.64C88.0452 38.6667 87.9252 38.6267 87.8719 38.52C87.8452 37.9067 87.8319 37.48 87.8319 37.24C87.8585 36.9733 87.8719 36.7333 87.8719 36.52C87.8719 36.3867 87.8585 36.2267 87.8319 36.04C87.8052 35.8267 87.7785 35.5467 87.7519 35.2L87.8719 33.08C87.8719 32.8133 87.8585 32.6133 87.8319 32.48C87.8319 32.32 87.8185 32.2 87.7919 32.12C87.7919 32.0133 87.7785 31.8933 87.7519 31.76C87.7519 31.6267 87.7519 31.4133 87.7519 31.12C87.7519 30.64 87.6585 30.16 87.4719 29.68C87.3119 29.2 87.1119 28.72 86.8719 28.24C86.7385 27.9733 86.5652 27.7333 86.3519 27.52C86.1385 27.3067 85.8585 27.12 85.5119 26.96C85.4585 26.9333 85.3919 26.9067 85.3119 26.88C85.2319 26.8533 85.1652 26.84 85.1119 26.84L84.1919 26.76C83.7385 26.7333 83.2719 26.8133 82.7919 27C82.3119 27.1867 82.0185 27.3733 81.9119 27.56C81.7252 27.88 81.5785 28.12 81.4719 28.28C81.3652 28.44 81.2585 28.6 81.1519 28.76C81.1252 28.84 81.0852 28.9867 81.0319 29.2C80.9785 29.3867 80.9119 29.6267 80.8319 29.92C80.7785 30.1867 80.7252 30.48 80.6719 30.8C80.6185 31.0933 80.5919 31.36 80.5919 31.6C80.5919 31.7867 80.5919 31.9733 80.5919 32.16C80.5919 32.32 80.5785 32.48 80.5519 32.64L80.4719 33.76L80.2319 35.28C80.2319 35.5467 80.2319 35.84 80.2319 36.16C80.2319 36.4533 80.2185 36.7333 80.1919 37V37.92C80.0319 38.0267 79.8985 38.08 79.7919 38.08C79.4985 38.1333 79.2852 38.1867 79.1519 38.24C79.0452 38.2933 78.8319 38.3067 78.5119 38.28C78.2185 38.2533 77.8319 38.2533 77.3519 38.28C76.8719 38.3333 76.4852 38.3333 76.1919 38.28C75.8985 38.2267 75.7519 38.1867 75.7519 38.16C75.7519 38.16 75.7519 38.0933 75.7519 37.96C75.7519 37.8533 75.7519 37.6933 75.7519 37.48C75.7785 37.24 75.7919 37 75.7919 36.76C75.7919 36.4933 75.7919 36.24 75.7919 36C75.8185 35.76 75.8319 35.5733 75.8319 35.44C75.8319 34.96 75.8185 34.56 75.7919 34.24C75.7652 33.92 75.7519 33.52 75.7519 33.04C75.7519 32.64 75.7385 32.32 75.7119 32.08C75.7119 31.8133 75.6985 31.48 75.6719 31.08C75.6719 30.8667 75.6852 30.6 75.7119 30.28C75.7385 29.9333 75.7519 29.5733 75.7519 29.2C75.7519 28.7467 75.7385 28.3067 75.7119 27.88C75.7119 27.4533 75.7119 27.1333 75.7119 26.92C75.6852 26.4667 75.6719 26.04 75.6719 25.64C75.6719 25.2133 75.6985 24.7867 75.7519 24.36ZM95.2691 27.16C95.2691 27.1067 95.3091 26.9333 95.3891 26.64C95.4957 26.3467 95.5624 26.1867 95.5891 26.16C95.6424 26.0267 95.6824 25.92 95.7091 25.84C95.7357 25.7333 95.8157 25.5867 95.9491 25.4C96.0557 25.2667 96.1891 25.1067 96.3491 24.92C96.5357 24.7333 96.6557 24.6 96.7091 24.52C96.8157 24.36 96.9357 24.2133 97.0691 24.08C97.1757 23.9467 97.3357 23.8133 97.5491 23.68C97.7624 23.5467 97.9357 23.4133 98.0691 23.28C98.4424 23.1733 98.7624 23.0667 99.0291 22.96C99.3224 22.8533 99.6024 22.8 99.8691 22.8C100.402 22.8 100.909 22.8133 101.389 22.84C101.896 22.8667 102.336 22.9467 102.709 23.08C103.109 23.08 103.442 23.1333 103.709 23.24C103.976 23.32 104.242 23.4267 104.509 23.56C104.642 23.8267 104.816 24.04 105.029 24.2C105.242 24.3333 105.416 24.4667 105.549 24.6L105.789 24.84C105.976 24.7067 106.056 24.56 106.029 24.4C106.029 24.24 106.056 24.0933 106.109 23.96C106.162 23.8 106.189 23.6667 106.189 23.56C106.189 23.4267 106.216 23.3333 106.269 23.28C106.349 23.2533 106.442 23.2533 106.549 23.28C106.656 23.28 106.762 23.28 106.869 23.28C107.109 23.28 107.416 23.2667 107.789 23.24C108.162 23.2133 108.442 23.2267 108.629 23.28C108.682 23.3067 108.736 23.36 108.789 23.44C108.842 23.4933 108.869 23.5333 108.869 23.56V23.84C108.869 24 108.869 24.2133 108.869 24.48C108.896 24.72 108.909 24.9733 108.909 25.24C108.909 25.48 108.896 25.72 108.869 25.96C108.869 26.2 108.869 26.4 108.869 26.56C108.869 26.6933 108.856 26.92 108.829 27.24C108.829 27.56 108.829 27.9067 108.829 28.28C108.829 28.6267 108.829 28.9467 108.829 29.24C108.829 29.5333 108.842 29.6933 108.869 29.72C108.869 29.9867 108.856 30.28 108.829 30.6C108.802 30.92 108.802 31.1467 108.829 31.28L108.869 32.56C108.896 32.7467 108.882 33.04 108.829 33.44C108.802 33.84 108.816 34.2933 108.869 34.8C108.896 34.9867 108.896 35.2667 108.869 35.64C108.869 35.9867 108.856 36.36 108.829 36.76C108.829 37.1333 108.816 37.4933 108.789 37.84C108.789 38.16 108.789 38.3867 108.789 38.52C108.789 39.0267 108.696 39.5333 108.509 40.04C108.349 40.5733 108.202 41.0933 108.069 41.6C107.936 41.8667 107.802 42.12 107.669 42.36C107.536 42.6 107.336 42.8667 107.069 43.16C106.962 43.2933 106.842 43.4533 106.709 43.64C106.576 43.8533 106.442 44.0267 106.309 44.16C106.176 44.3467 105.936 44.5467 105.589 44.76C105.269 45 105.042 45.2267 104.909 45.44C104.776 45.6 104.549 45.7333 104.229 45.84C103.909 45.9467 103.682 46.0133 103.549 46.04L102.149 46.52C101.909 46.6533 101.656 46.76 101.389 46.84C101.149 46.9467 100.842 47.0133 100.469 47.04C100.416 47.04 100.362 47.0267 100.309 47C100.256 47 100.202 47.0133 100.149 47.04C99.8824 47.04 99.6557 47.0667 99.4691 47.12C99.3091 47.2 99.0957 47.24 98.8291 47.24H98.5891C98.2157 47.24 97.9624 47.2267 97.8291 47.2C97.7224 47.2 97.4424 47.2133 96.9891 47.24C96.9624 47.24 96.8824 47.2533 96.7491 47.28C96.6157 47.3067 96.5491 47.2933 96.5491 47.24C96.5491 46.7333 96.5224 46.2667 96.4691 45.84C96.4424 45.4133 96.4291 45 96.4291 44.6L96.7091 44.36H98.0691C98.4424 44.2267 98.7757 44.1467 99.0691 44.12C99.3891 44.0933 99.7491 44.0133 100.149 43.88C100.522 43.64 100.856 43.4 101.149 43.16C101.469 42.92 101.816 42.7333 102.189 42.6C102.456 42.36 102.709 42.1067 102.949 41.84C103.189 41.6 103.376 41.3467 103.509 41.08C103.749 40.84 103.896 40.5867 103.949 40.32C104.029 40.0533 104.136 39.7867 104.269 39.52C104.269 39.28 104.309 39.0267 104.389 38.76C104.469 38.52 104.509 38.2667 104.509 38V36.96C104.509 36.8267 104.469 36.8 104.389 36.88C104.336 36.9067 104.296 36.9333 104.269 36.96C103.896 37.2 103.456 37.3467 102.949 37.4C102.442 37.4267 101.936 37.44 101.429 37.44H101.149C100.776 37.4133 100.416 37.3333 100.069 37.2C99.7224 37.12 99.4291 37.04 99.1891 36.96C98.9491 36.88 98.6824 36.76 98.3891 36.6C98.3091 36.5467 98.1891 36.4933 98.0291 36.44C97.8691 36.36 97.6024 36.2133 97.2291 36L96.7491 35.44L95.8691 34.48C95.7891 34.3467 95.7091 34.1733 95.6291 33.96C95.5757 33.7467 95.4957 33.4933 95.3891 33.2C95.3357 33.04 95.2691 32.8667 95.1891 32.68C95.1091 32.4933 95.0424 32.2933 94.9891 32.08V28.72C94.9891 28.5867 95.0157 28.4133 95.0691 28.2C95.1491 27.96 95.1891 27.7867 95.1891 27.68C95.1891 27.6267 95.2024 27.5733 95.2291 27.52C95.2291 27.4667 95.2291 27.4133 95.2291 27.36C95.2557 27.3067 95.2691 27.24 95.2691 27.16ZM101.429 31.56C101.562 31.56 101.682 31.5467 101.789 31.52C101.922 31.4933 102.056 31.4133 102.189 31.28C102.242 31.1733 102.256 31.0667 102.229 30.96C102.229 30.8267 102.256 30.7333 102.309 30.68C102.442 30.4667 102.496 30.3333 102.469 30.28C102.442 30.2267 102.429 30.1333 102.429 30C102.429 29.8667 102.376 29.7067 102.269 29.52C102.189 29.3067 102.082 29.1333 101.949 29C101.816 28.8667 101.722 28.8 101.669 28.8C101.616 28.8 101.442 28.8667 101.149 29C100.962 29.1867 100.869 29.5733 100.869 30.16C100.869 30.2133 100.856 30.3333 100.829 30.52C100.829 30.7067 100.856 30.88 100.909 31.04C100.909 31.0933 100.976 31.2 101.109 31.36C101.242 31.4933 101.349 31.56 101.429 31.56Z" fill="black"/>
</svg>
